{
    "asset" : {
        "generator" : "Khronos glTF Blender I/O v1.1.46",
        "version" : "2.0"
    },
    "scene" : 0,
    "scenes" : [
        {
            "name" : "Scene",
            "nodes" : [
                0,
                1,
                2,
                3,
                4,
                5,
                6,
                7,
                8
            ]
        }
    ],
    "nodes" : [
        {
            "mesh" : 0,
            "name" : "Foot.003",
            "scale" : [
                0.0009000000427477062,
                0.0009000000427477062,
                0.0009000000427477062
            ],
            "translation" : [
                0.5356343984603882,
                -0.2810286283493042,
                -0.009560241363942623
            ]
        },
        {
            "mesh" : 1,
            "name" : "Lateral_body.003",
            "rotation" : [
                0,
                -0.03577255830168724,
                0,
                0.9993599653244019
            ],
            "scale" : [
                0.000808980199508369,
                0.001081981579773128,
                0.0007990092854015529
            ],
            "translation" : [
                0.0047431946732103825,
                -0.2656833529472351,
                -0.020542893558740616
            ]
        },
        {
            "mesh" : 2,
            "name" : "Medial_body.003",
            "rotation" : [
                0,
                -0.03577255830168724,
                0,
                0.9993599653244019
            ],
            "scale" : [
                0.000808980199508369,
                0.001081981579773128,
                0.0007990092854015529
            ],
            "translation" : [
                0.0047431946732103825,
                -0.2656833529472351,
                -0.020542893558740616
            ]
        },
        {
            "mesh" : 3,
            "name" : "Resin_fiber_layer.003",
            "rotation" : [
                0,
                -0.03577255830168724,
                0,
                0.9993599653244019
            ],
            "scale" : [
                0.000808980199508369,
                0.001081981579773128,
                0.0007990092854015529
            ],
            "translation" : [
                0.004941009916365147,
                -0.266327828168869,
                -0.020259324461221695
            ]
        },
        {
            "mesh" : 4,
            "name" : "Sewer_pipeline.002",
            "rotation" : [
                0,
                0.7071068286895752,
                0,
                0.7071067094802856
            ],
            "scale" : [
                0.0010000000474974513,
                0.0010000000474974513,
                0.0010000000474974513
            ],
            "translation" : [
                0.1035534143447876,
                -0.17182649672031403,
                -0.013471619226038456
            ]
        },
        {
            "mesh" : 5,
            "name" : "Spillway.003",
            "rotation" : [
                0.6436100602149963,
                0.038570694625377655,
                -0.02838021330535412,
                0.7638540267944336
            ],
            "scale" : [
                0.0008995663374662399,
                0.00029809254920110106,
                0.0012001862050965428
            ],
            "translation" : [
                0.030761605128645897,
                0.2628130614757538,
                -0.3726232349872589
            ]
        },
        {
            "mesh" : 6,
            "name" : "Spillway_shadow.003",
            "rotation" : [
                0.6436100602149963,
                0.038570694625377655,
                -0.02838021330535412,
                0.7638540267944336
            ],
            "scale" : [
                0.0008995663374662399,
                0.00029809254920110106,
                0.0012001862050965428
            ],
            "translation" : [
                0.030761605128645897,
                0.2628130614757538,
                -0.3726232349872589
            ]
        },
        {
            "mesh" : 7,
            "name" : "Stainless_steel_support.002",
            "scale" : [
                0.0010000000474974513,
                0.0010000000474974513,
                0.0010000000474974513
            ],
            "translation" : [
                0.11081980168819427,
                -0.1550949066877365,
                -0.009559862315654755
            ]
        },
        {
            "mesh" : 8,
            "name" : "Water_cover.002",
            "rotation" : [
                0,
                -0.03577256202697754,
                0,
                0.9993599653244019
            ],
            "scale" : [
                0.00010019955516327173,
                0.00011104871373390779,
                0.00010019955516327173
            ],
            "translation" : [
                0.10384439677000046,
                -0.130313441157341,
                -0.011430573649704456
            ]
        }
    ],
    "meshes" : [
        {
            "name" : "\u7f51\u683c.004",
            "primitives" : [
                {
                    "attributes" : {
                        "POSITION" : 0,
                        "TEXCOORD_0" : 1
                    },
                    "indices" : 2
                }
            ]
        },
        {
            "name" : "\u7f51\u683c.006",
            "primitives" : [
                {
                    "attributes" : {
                        "POSITION" : 3,
                        "TEXCOORD_0" : 4
                    },
                    "indices" : 5
                }
            ]
        },
        {
            "name" : "\u7f51\u683c.008",
            "primitives" : [
                {
                    "attributes" : {
                        "POSITION" : 6,
                        "TEXCOORD_0" : 7
                    },
                    "indices" : 8
                }
            ]
        },
        {
            "name" : "\u7f51\u683c.007",
            "primitives" : [
                {
                    "attributes" : {
                        "POSITION" : 9,
                        "TEXCOORD_0" : 10
                    },
                    "indices" : 11
                }
            ]
        },
        {
            "name" : "\u7f51\u683c.005",
            "primitives" : [
                {
                    "attributes" : {
                        "POSITION" : 12,
                        "TEXCOORD_0" : 13
                    },
                    "indices" : 14
                }
            ]
        },
        {
            "name" : "\u7f51\u683c",
            "primitives" : [
                {
                    "attributes" : {
                        "POSITION" : 15,
                        "TEXCOORD_0" : 16
                    },
                    "indices" : 17
                }
            ]
        },
        {
            "name" : "\u7f51\u683c.003",
            "primitives" : [
                {
                    "attributes" : {
                        "POSITION" : 18,
                        "TEXCOORD_0" : 19
                    },
                    "indices" : 20
                }
            ]
        },
        {
            "name" : "\u7f51\u683c.002",
            "primitives" : [
                {
                    "attributes" : {
                        "POSITION" : 21,
                        "TEXCOORD_0" : 22
                    },
                    "indices" : 23
                }
            ]
        },
        {
            "name" : "\u7f51\u683c.018",
            "primitives" : [
                {
                    "attributes" : {
                        "POSITION" : 24,
                        "TEXCOORD_0" : 25
                    },
                    "indices" : 26
                }
            ]
        }
    ],
    "accessors" : [
        {
            "bufferView" : 0,
            "componentType" : 5126,
            "count" : 2172,
            "max" : [
                39.792442321777344,
                39.047698974609375,
                256.100341796875
            ],
            "min" : [
                -983.8258056640625,
                2.0981478691101074,
                -256.1000671386719
            ],
            "type" : "VEC3"
        },
        {
            "bufferView" : 1,
            "componentType" : 5126,
            "count" : 2172,
            "type" : "VEC2"
        },
        {
            "bufferView" : 2,
            "componentType" : 5123,
            "count" : 5760,
            "type" : "SCALAR"
        },
        {
            "bufferView" : 3,
            "componentType" : 5126,
            "count" : 818,
            "max" : [
                1044.63134765625,
                553.569580078125,
                502.09521484375
            ],
            "min" : [
                -1051.9287109375,
                5.153631210327148,
                -512.4536743164062
            ],
            "type" : "VEC3"
        },
        {
            "bufferView" : 4,
            "componentType" : 5126,
            "count" : 818,
            "type" : "VEC2"
        },
        {
            "bufferView" : 5,
            "componentType" : 5123,
            "count" : 3696,
            "type" : "SCALAR"
        },
        {
            "bufferView" : 6,
            "componentType" : 5126,
            "count" : 2169,
            "max" : [
                1044.63134765625,
                554.5447998046875,
                502.09521484375
            ],
            "min" : [
                -1051.9287109375,
                125.69789123535156,
                -512.4536743164062
            ],
            "type" : "VEC3"
        },
        {
            "bufferView" : 7,
            "componentType" : 5126,
            "count" : 2169,
            "type" : "VEC2"
        },
        {
            "bufferView" : 8,
            "componentType" : 5123,
            "count" : 7956,
            "type" : "SCALAR"
        },
        {
            "bufferView" : 9,
            "componentType" : 5126,
            "count" : 4202,
            "max" : [
                1042.2081298828125,
                554.5897827148438,
                499.18731689453125
            ],
            "min" : [
                -1049.33642578125,
                6.090396881103516,
                -509.7446594238281
            ],
            "type" : "VEC3"
        },
        {
            "bufferView" : 10,
            "componentType" : 5126,
            "count" : 4202,
            "type" : "VEC2"
        },
        {
            "bufferView" : 11,
            "componentType" : 5123,
            "count" : 15120,
            "type" : "SCALAR"
        },
        {
            "bufferView" : 12,
            "componentType" : 5126,
            "count" : 3774,
            "max" : [
                376.4962463378906,
                406.188232421875,
                389.9346923828125
            ],
            "min" : [
                -42.16847610473633,
                -163.17575073242188,
                -101.952880859375
            ],
            "type" : "VEC3"
        },
        {
            "bufferView" : 13,
            "componentType" : 5126,
            "count" : 3774,
            "type" : "VEC2"
        },
        {
            "bufferView" : 14,
            "componentType" : 5123,
            "count" : 16140,
            "type" : "SCALAR"
        },
        {
            "bufferView" : 15,
            "componentType" : 5126,
            "count" : 360,
            "max" : [
                66.29549407958984,
                63.035064697265625,
                17.38897705078125
            ],
            "min" : [
                -66.29549407958984,
                28.588294982910156,
                -17.38897705078125
            ],
            "type" : "VEC3"
        },
        {
            "bufferView" : 16,
            "componentType" : 5126,
            "count" : 360,
            "type" : "VEC2"
        },
        {
            "bufferView" : 17,
            "componentType" : 5123,
            "count" : 732,
            "type" : "SCALAR"
        },
        {
            "bufferView" : 18,
            "componentType" : 5126,
            "count" : 4,
            "max" : [
                48.45169448852539,
                53.395347595214844,
                8.347955703735352
            ],
            "min" : [
                -48.45170211791992,
                53.33494567871094,
                -7.355648994445801
            ],
            "type" : "VEC3"
        },
        {
            "bufferView" : 19,
            "componentType" : 5126,
            "count" : 4,
            "type" : "VEC2"
        },
        {
            "bufferView" : 20,
            "componentType" : 5123,
            "count" : 6,
            "type" : "SCALAR"
        },
        {
            "bufferView" : 21,
            "componentType" : 5126,
            "count" : 2356,
            "max" : [
                444.8150634765625,
                30.000001907348633,
                215.2210693359375
            ],
            "min" : [
                -444.8150634765625,
                -107.22807312011719,
                -215.22116088867188
            ],
            "type" : "VEC3"
        },
        {
            "bufferView" : 22,
            "componentType" : 5126,
            "count" : 2356,
            "type" : "VEC2"
        },
        {
            "bufferView" : 23,
            "componentType" : 5123,
            "count" : 4344,
            "type" : "SCALAR"
        },
        {
            "bufferView" : 24,
            "componentType" : 5126,
            "count" : 1106,
            "max" : [
                420.8555603027344,
                70.36470031738281,
                420.8556213378906
            ],
            "min" : [
                -420.85565185546875,
                10.44224739074707,
                -420.8555908203125
            ],
            "type" : "VEC3"
        },
        {
            "bufferView" : 25,
            "componentType" : 5126,
            "count" : 1106,
            "type" : "VEC2"
        },
        {
            "bufferView" : 26,
            "componentType" : 5123,
            "count" : 4026,
            "type" : "SCALAR"
        }
    ],
    "bufferViews" : [
        {
            "buffer" : 0,
            "byteLength" : 26064,
            "byteOffset" : 0
        },
        {
            "buffer" : 0,
            "byteLength" : 17376,
            "byteOffset" : 26064
        },
        {
            "buffer" : 0,
            "byteLength" : 11520,
            "byteOffset" : 43440
        },
        {
            "buffer" : 0,
            "byteLength" : 9816,
            "byteOffset" : 54960
        },
        {
            "buffer" : 0,
            "byteLength" : 6544,
            "byteOffset" : 64776
        },
        {
            "buffer" : 0,
            "byteLength" : 7392,
            "byteOffset" : 71320
        },
        {
            "buffer" : 0,
            "byteLength" : 26028,
            "byteOffset" : 78712
        },
        {
            "buffer" : 0,
            "byteLength" : 17352,
            "byteOffset" : 104740
        },
        {
            "buffer" : 0,
            "byteLength" : 15912,
            "byteOffset" : 122092
        },
        {
            "buffer" : 0,
            "byteLength" : 50424,
            "byteOffset" : 138004
        },
        {
            "buffer" : 0,
            "byteLength" : 33616,
            "byteOffset" : 188428
        },
        {
            "buffer" : 0,
            "byteLength" : 30240,
            "byteOffset" : 222044
        },
        {
            "buffer" : 0,
            "byteLength" : 45288,
            "byteOffset" : 252284
        },
        {
            "buffer" : 0,
            "byteLength" : 30192,
            "byteOffset" : 297572
        },
        {
            "buffer" : 0,
            "byteLength" : 32280,
            "byteOffset" : 327764
        },
        {
            "buffer" : 0,
            "byteLength" : 4320,
            "byteOffset" : 360044
        },
        {
            "buffer" : 0,
            "byteLength" : 2880,
            "byteOffset" : 364364
        },
        {
            "buffer" : 0,
            "byteLength" : 1464,
            "byteOffset" : 367244
        },
        {
            "buffer" : 0,
            "byteLength" : 48,
            "byteOffset" : 368708
        },
        {
            "buffer" : 0,
            "byteLength" : 32,
            "byteOffset" : 368756
        },
        {
            "buffer" : 0,
            "byteLength" : 12,
            "byteOffset" : 368788
        },
        {
            "buffer" : 0,
            "byteLength" : 28272,
            "byteOffset" : 368800
        },
        {
            "buffer" : 0,
            "byteLength" : 18848,
            "byteOffset" : 397072
        },
        {
            "buffer" : 0,
            "byteLength" : 8688,
            "byteOffset" : 415920
        },
        {
            "buffer" : 0,
            "byteLength" : 13272,
            "byteOffset" : 424608
        },
        {
            "buffer" : 0,
            "byteLength" : 8848,
            "byteOffset" : 437880
        },
        {
            "buffer" : 0,
            "byteLength" : 8052,
            "byteOffset" : 446728
        }
    ],
    "buffers" : [
        {
            "byteLength" : 454780,
            "uri" : "data:application/octet-stream;base64,"
        }
    ]
}
